<?xml version="1.0"?>
<svg xmlns="http://www.w3.org/2000/svg" viewBox="0 0 50 50" enable-background="new 0 0 50 50">
    <path style="text-indent:0;text-align:start;line-height:normal;text-transform:none;block-progression:tb;-inkscape-font-specification:Bitstream Vera Sans" d="M 0.8125 0 A 1.0001 1.0001 0 0 0 0.71875 0.03125 A 1.0001 1.0001 0 0 0 0.625 0.0625 A 1.0001 1.0001 0 0 0 0.53125 0.09375 A 1.0001 1.0001 0 0 0 0.5 0.125 A 1.0001 1.0001 0 0 0 0.4375 0.15625 A 1.0001 1.0001 0 0 0 0.40625 0.1875 A 1.0001 1.0001 0 0 0 0.34375 0.21875 A 1.0001 1.0001 0 0 0 0.34375 0.25 A 1.0001 1.0001 0 0 0 0.28125 0.28125 A 1.0001 1.0001 0 0 0 0.25 0.3125 A 1.0001 1.0001 0 0 0 0.21875 0.34375 A 1.0001 1.0001 0 0 0 0.1875 0.40625 A 1.0001 1.0001 0 0 0 0.15625 0.4375 A 1.0001 1.0001 0 0 0 0.15625 0.46875 A 1.0001 1.0001 0 0 0 0.09375 0.53125 A 1.0001 1.0001 0 0 0 0.09375 0.5625 A 1.0001 1.0001 0 0 0 0.0625 0.59375 A 1.0001 1.0001 0 0 0 0.0625 0.65625 A 1.0001 1.0001 0 0 0 0.03125 0.6875 A 1.0001 1.0001 0 0 0 0.03125 0.75 A 1.0001 1.0001 0 0 0 0 0.78125 A 1.0001 1.0001 0 0 0 0 0.84375 A 1.0001 1.0001 0 0 0 0 1.1875 L 0 35 A 1.0001 1.0001 0 0 0 0.25 35.65625 L 12.1875 49.5625 A 1.0001 1.0001 0 0 0 12.375 49.78125 A 1.0001 1.0001 0 0 0 12.40625 49.78125 A 1.0001 1.0001 0 0 0 12.53125 49.90625 A 1.0001 1.0001 0 0 0 12.5625 49.90625 A 1.0001 1.0001 0 0 0 12.625 49.9375 A 1.0001 1.0001 0 0 0 12.65625 49.9375 A 1.0001 1.0001 0 0 0 12.71875 49.96875 A 1.0001 1.0001 0 0 0 12.75 49.96875 A 1.0001 1.0001 0 0 0 12.9375 50 A 1.0001 1.0001 0 0 0 13 50 A 1.0001 1.0001 0 0 0 13.0625 50 L 49 50 A 1.0001 1.0001 0 0 0 50 49 L 50 13.0625 A 1.0001 1.0001 0 0 0 50 13 A 1.0001 1.0001 0 0 0 50 12.96875 A 1.0001 1.0001 0 0 0 50 12.90625 A 1.0001 1.0001 0 0 0 50 12.875 A 1.0001 1.0001 0 0 0 49.96875 12.8125 A 1.0001 1.0001 0 0 0 49.96875 12.78125 A 1.0001 1.0001 0 0 0 49.9375 12.6875 A 1.0001 1.0001 0 0 0 49.9375 12.65625 A 1.0001 1.0001 0 0 0 49.90625 12.625 A 1.0001 1.0001 0 0 0 49.90625 12.59375 A 1.0001 1.0001 0 0 0 49.84375 12.46875 A 1.0001 1.0001 0 0 0 49.8125 12.40625 A 1.0001 1.0001 0 0 0 49.75 12.34375 A 1.0001 1.0001 0 0 0 49.6875 12.28125 A 1.0001 1.0001 0 0 0 49.65625 12.25 L 49.59375 12.1875 A 1.0001 1.0001 0 0 0 49.46875 12.09375 L 35.65625 0.25 A 1.0001 1.0001 0 0 0 35 0 L 1.1875 0 L 1 0 A 1.0001 1.0001 0 0 0 0.90625 0 A 1.0001 1.0001 0 0 0 0.8125 0 z M 3.4375 2 L 34.625 2 L 46.3125 12 L 13.4375 12 L 3.4375 2 z M 2 3.4375 L 12 13.4375 L 12 46.3125 L 2 34.625 L 2 3.4375 z M 14 14 L 48 14 L 48 48 L 14 48 L 14 14 z" overflow="visible" enable-background="accumulate" font-family="Bitstream Vera Sans"/>
</svg>
